# xmcd CD database file
#
# Track frame offsets:
#	150
#	15422
#	30171
#	45134
#	57009
#	68103
#	84055
#	97025
#	111136
#	127819
#	142468
#	156553
#	169670
#	185830
#	197821
#	220572
#	249966
#	273608
#	298588
#	307836
#	325365
#	344642
#
# Disc length: 4728 seconds
#
# Revision: 0
# Processed by: cddbd v1.5.2PL0 Copyright (c) Steve Scherf et al.
# Submitted via: CDex 1.51
#
DISCID=36127616
DTITLE=Les rois du jazz - CD2
DYEAR=1995
DGENRE=Jazz
TTITLE0=Nuages
TTITLE1=Swing 39
TTITLE2=Manoir de mes rêves
TTITLE3=Djangology
TTITLE4=Minor swing
TTITLE5=Just a gigolo
TTITLE6=Vous qui passez sans me voir
TTITLE7=Clopin-clopant
TTITLE8=Troublant boléro
TTITLE9=Swing 41
TTITLE10=Vendredi 13
TTITLE11=Tea for two
TTITLE12=Sweet georgia brown
TTITLE13=Darling, je vous aime beaucoup
TTITLE14=Girl from ipanema
TTITLE15=Taking a chance on love
TTITLE16=More
TTITLE17=I got rhythm
TTITLE18=Lonely street
TTITLE19=Like someone in love
TTITLE20=Willow weep for me
TTITLE21=I want to be happy
EXTD=YEAR: 1995
EXTT0=
EXTT1=
EXTT2=
EXTT3=
EXTT4=
EXTT5=
EXTT6=
EXTT7=
EXTT8=
EXTT9=
EXTT10=
EXTT11=
EXTT12=
EXTT13=
EXTT14=
EXTT15=
EXTT16=
EXTT17=
EXTT18=
EXTT19=
EXTT20=
EXTT21=
PLAYORDER=
